# xmcd
#
# Track frame offsets:
#	150
#	13182
#	23296
#	38802
#	56963
#	66715
#	81622
#	97389
#	115220
#	129018
#	144253
#	160034
#
# Disc length: 2315 seconds
#
# Revision: 1
# Processed by: cddbd v1.5PL3 Copyright (c) Steve Scherf et al.
# Submitted via: EasyCDDAExtractor 6.2.0.3
#
DISCID=a409090c
DTITLE=Guitar Islancio
DYEAR=1999
DGENRE=Guitar
TTITLE0=Góða Veislu Gjöra Skal
TTITLE1=Fagurt galaði fuglinn sá
TTITLE2=Vísur Vatnsenda Rósu
TTITLE3=Kindur jarma í kofunum
TTITLE4=Ég veit eina brúði skína skal
TTITLE5=Sæll Jesús sæti
TTITLE6=Fífilbrekka, gróin grund
TTITLE7=Veröld fláa
TTITLE8=Kysstu mig mjúka mær
TTITLE9=Þjóðvísa
TTITLE10=Brögunum skipar byrstur þá
TTITLE11=Grátandi kem ég nú Guð til þín
EXTD=
EXTT0=
EXTT1=
EXTT2=
EXTT3=
EXTT4=
EXTT5=
EXTT6=
EXTT7=
EXTT8=
EXTT9=
EXTT10=
EXTT11=
PLAYORDER=
